<?xml version="1.0" standalone="no"?>
<!DOCTYPE svg PUBLIC "-//W3C//DTD SVG 20010904//EN"
 "http://www.w3.org/TR/2001/REC-SVG-20010904/DTD/svg10.dtd">
<svg version="1.0" xmlns="http://www.w3.org/2000/svg"
 width="3778.000000pt" height="3778.000000pt" viewBox="0 0 3778.000000 3778.000000"
 preserveAspectRatio="xMidYMid meet">
<metadata>
Created by potrace 1.14, written by Peter Selinger 2001-2017
</metadata>
<g transform="translate(0.000000,3778.000000) scale(0.100000,-0.100000)"
fill="#000000" stroke="none">
<path d="M766 33062 c-2 -1 -25 -4 -52 -7 -181 -20 -398 -146 -524 -304 -50
-62 -127 -198 -134 -234 -2 -7 -9 -32 -16 -57 -8 -25 -14 -47 -15 -50 -1 -3
-5 -30 -9 -60 -10 -64 -11 -26865 -2 -26927 49 -313 268 -574 564 -672 35 -11
91 -25 125 -32 46 -8 3109 -11 11843 -11 6479 0 11800 3 11825 7 187 29 365
118 489 245 83 86 149 199 277 478 13 29 67 141 119 249 52 108 94 197 94 198
0 2 33 72 74 157 40 84 89 187 109 228 35 76 96 203 188 398 28 59 70 148 94
197 23 50 66 140 95 200 107 223 153 322 185 390 18 39 72 150 119 249 47 98
86 180 86 181 0 2 34 74 76 161 77 161 128 267 208 437 41 86 65 138 188 397
28 58 67 141 88 185 21 44 66 139 100 210 34 72 77 162 95 200 45 95 110 232
310 650 32 66 74 156 95 200 68 144 127 268 176 370 26 55 48 102 49 105 1 3
23 50 49 105 27 55 65 136 86 180 21 44 68 143 105 220 37 77 80 167 95 200
15 33 56 119 90 190 34 72 79 166 100 210 21 44 63 134 95 200 32 66 77 161
100 210 24 50 65 137 93 195 108 227 156 329 197 415 23 50 66 140 95 200 95
200 152 319 185 390 18 39 68 144 112 235 44 91 90 189 103 219 l25 53 28 -33
c16 -19 52 -65 82 -104 50 -65 440 -561 468 -595 7 -8 84 -107 173 -220 179
-229 492 -627 511 -650 16 -19 739 -939 884 -1125 60 -77 115 -147 122 -155 7
-8 111 -141 231 -295 121 -154 226 -287 233 -295 8 -8 43 -53 79 -100 36 -47
79 -101 94 -120 65 -81 464 -588 489 -620 14 -20 206 -264 426 -543 220 -280
420 -534 445 -566 25 -32 234 -299 465 -592 230 -294 423 -538 427 -544 4 -5
20 -26 36 -45 16 -19 327 -415 692 -880 365 -465 666 -847 669 -850 4 -3 26
-31 51 -64 25 -32 56 -73 70 -91 164 -214 437 -551 479 -593 291 -284 774
-310 1091 -57 158 126 281 331 308 514 4 25 7 6105 7 13511 l0 13465 -23 75
c-79 250 -222 421 -444 532 -34 17 -66 31 -72 33 -6 1 -18 5 -26 8 -8 3 -33
10 -55 16 -282 70 -562 -3 -787 -205 -18 -16 -143 -124 -278 -239 -135 -115
-258 -222 -275 -236 -97 -85 -289 -251 -335 -289 -29 -25 -58 -49 -64 -55 -6
-5 -40 -35 -76 -65 -36 -30 -67 -58 -70 -61 -5 -6 -130 -113 -179 -154 -14
-11 -61 -52 -105 -90 -45 -39 -164 -142 -266 -230 -102 -87 -187 -161 -190
-164 -3 -3 -32 -28 -65 -56 -33 -27 -65 -54 -71 -60 -6 -5 -37 -32 -69 -60
-33 -27 -77 -66 -100 -86 -22 -20 -110 -95 -195 -168 -85 -73 -168 -145 -185
-160 -26 -23 -196 -169 -264 -226 -13 -11 -29 -25 -35 -30 -6 -6 -141 -123
-301 -260 -159 -137 -301 -259 -315 -271 -14 -12 -65 -57 -115 -99 -49 -43
-108 -93 -130 -113 -22 -19 -64 -55 -94 -81 -30 -25 -109 -93 -176 -151 -66
-58 -148 -127 -180 -155 -32 -27 -79 -68 -105 -90 -75 -65 -154 -133 -354
-305 -103 -89 -202 -174 -220 -190 -17 -15 -114 -98 -216 -185 -102 -87 -201
-172 -220 -189 -45 -40 -236 -205 -274 -237 -16 -13 -34 -29 -40 -34 -6 -6
-92 -80 -191 -165 -99 -85 -185 -159 -191 -164 -6 -6 -33 -29 -59 -51 -27 -22
-53 -44 -59 -50 -6 -5 -61 -53 -121 -105 -124 -107 -115 -99 -285 -245 -69
-59 -139 -119 -155 -134 -17 -14 -59 -51 -95 -81 -56 -48 -101 -86 -144 -125
-22 -20 -141 -122 -170 -146 -16 -13 -66 -56 -110 -95 -63 -54 -445 -384 -616
-530 -14 -12 -79 -68 -145 -125 -66 -57 -136 -117 -155 -133 -19 -15 -53 -45
-75 -65 -22 -20 -69 -60 -105 -90 -36 -30 -69 -60 -75 -65 -5 -6 -39 -36 -75
-66 -36 -30 -67 -57 -70 -60 -3 -3 -32 -27 -65 -55 -33 -27 -62 -52 -65 -55
-3 -3 -133 -116 -290 -250 -157 -135 -287 -247 -290 -250 -3 -3 -115 -100
-250 -215 -135 -115 -252 -217 -260 -225 -8 -8 -40 -36 -70 -60 -30 -25 -64
-54 -76 -65 -12 -11 -45 -40 -75 -65 -29 -25 -107 -92 -174 -149 -66 -57 -145
-125 -175 -151 -30 -26 -113 -98 -185 -160 -71 -62 -155 -133 -185 -159 -30
-25 -73 -62 -95 -82 -22 -19 -155 -134 -295 -254 -140 -121 -260 -224 -266
-230 -6 -5 -35 -30 -65 -55 -45 -38 -213 -182 -423 -365 -27 -24 -54 -41 -60
-38 -6 2 -36 37 -66 76 -53 71 -89 117 -271 347 -49 63 -101 129 -113 145 -37
47 -305 388 -319 405 -29 36 -345 438 -369 470 -14 19 -67 87 -118 150 -50 63
-150 191 -223 283 -162 207 -167 213 -244 312 -35 44 -69 87 -76 95 -7 8 -62
78 -122 155 -60 77 -112 142 -115 145 -3 3 -19 23 -35 45 -16 22 -35 47 -42
55 -17 20 -769 978 -796 1013 -12 16 -51 65 -87 110 -105 131 -859 1091 -925
1176 -33 43 -74 96 -91 117 -26 31 -203 256 -338 429 -13 17 -111 140 -217
275 -106 135 -314 400 -463 590 -149 190 -276 352 -283 360 -7 8 -101 128
-209 265 -108 138 -226 288 -263 335 -37 47 -92 117 -121 155 -30 39 -57 72
-60 75 -3 3 -46 57 -95 120 -49 63 -92 117 -95 120 -3 3 -26 32 -51 65 -37 49
-701 894 -742 945 -7 8 -35 44 -62 80 -28 35 -58 73 -67 85 -9 11 -217 274
-461 585 -337 430 -460 579 -513 623 -82 69 -218 139 -329 169 l-80 21 -7658
1 c-4212 1 -7660 0 -7661 -2z m13740 -1706 c-13 -22 -43 -75 -67 -116 -24 -41
-44 -77 -44 -80 0 -3 -8 -16 -16 -30 -15 -23 -67 -114 -131 -230 -14 -25 -34
-61 -45 -80 -11 -19 -59 -102 -106 -185 -46 -82 -99 -174 -116 -203 -17 -29
-31 -55 -31 -57 0 -2 -38 -70 -85 -150 -47 -81 -85 -148 -85 -151 0 -2 -22
-41 -48 -86 -27 -46 -120 -209 -207 -363 -87 -154 -220 -388 -295 -520 -75
-132 -151 -267 -170 -300 -18 -33 -49 -89 -70 -125 -20 -36 -48 -85 -62 -110
-36 -65 -322 -569 -347 -610 -11 -19 -29 -51 -39 -70 -10 -19 -28 -52 -40 -72
-27 -46 -38 -65 -139 -243 -43 -78 -82 -147 -86 -155 -4 -8 -11 -22 -17 -30
-12 -18 -57 -97 -115 -200 -23 -41 -52 -93 -65 -115 -46 -81 -148 -262 -175
-310 -48 -88 -77 -139 -105 -185 -15 -25 -41 -70 -57 -100 -17 -30 -68 -122
-115 -205 -47 -82 -95 -167 -107 -187 -11 -21 -30 -54 -41 -74 -11 -19 -69
-121 -129 -227 -60 -106 -143 -252 -185 -326 -42 -73 -76 -136 -76 -138 0 -3
-8 -17 -18 -31 -11 -15 -32 -52 -49 -82 -16 -30 -66 -118 -110 -195 -43 -77
-82 -147 -86 -155 -4 -8 -21 -37 -37 -65 -31 -53 -115 -200 -163 -288 -16 -29
-36 -63 -45 -77 -9 -14 -15 -26 -14 -27 1 -2 -14 -27 -33 -57 -19 -30 -35 -57
-35 -59 0 -2 -23 -44 -51 -93 -41 -71 -290 -510 -380 -670 -10 -19 -38 -68
-60 -107 -71 -123 -78 -136 -212 -372 -72 -126 -141 -248 -153 -270 -24 -43
-34 -59 -81 -145 -17 -30 -84 -147 -148 -260 -64 -113 -133 -234 -153 -270
-19 -36 -55 -98 -79 -138 -24 -41 -43 -75 -43 -77 0 -2 -13 -26 -29 -53 -33
-57 -76 -131 -106 -187 -12 -22 -51 -89 -85 -150 -144 -252 -219 -383 -250
-440 -18 -33 -66 -116 -105 -185 -39 -69 -85 -150 -102 -180 -28 -51 -91 -162
-323 -570 -287 -505 -380 -671 -380 -677 0 -3 -6 -14 -14 -22 -7 -9 -26 -41
-42 -71 -16 -30 -36 -66 -45 -80 -9 -14 -59 -101 -112 -195 -52 -93 -105 -186
-116 -205 -11 -19 -24 -42 -28 -50 -4 -8 -21 -40 -39 -70 -17 -30 -42 -75 -56
-100 -14 -25 -61 -108 -105 -185 -44 -77 -93 -162 -108 -190 -16 -27 -93 -165
-173 -305 -79 -140 -185 -327 -234 -415 -50 -88 -112 -197 -139 -243 -27 -45
-49 -85 -49 -88 0 -2 -11 -21 -23 -42 -13 -20 -39 -64 -57 -97 -54 -97 -119
-213 -178 -315 -11 -19 -77 -136 -147 -260 -70 -124 -135 -238 -145 -255 -9
-16 -31 -56 -49 -89 -41 -73 -88 -156 -101 -176 -5 -8 -18 -31 -28 -50 -45
-82 -327 -578 -349 -612 -12 -21 -23 -40 -23 -42 0 -4 -58 -108 -110 -196 -13
-22 -122 -215 -158 -280 -16 -30 -61 -109 -99 -175 -38 -66 -72 -127 -76 -135
-4 -8 -11 -22 -17 -30 -9 -14 -80 -138 -142 -250 -14 -25 -62 -110 -108 -190
-45 -80 -132 -233 -192 -340 -61 -107 -136 -240 -168 -295 -49 -86 -82 -145
-134 -240 -6 -11 -16 -27 -22 -35 -7 -8 -27 -43 -45 -78 -19 -35 -38 -71 -44
-80 -5 -9 -28 -49 -49 -87 -22 -39 -47 -83 -57 -100 -104 -183 -186 -328 -206
-365 -14 -25 -33 -58 -43 -75 -10 -16 -29 -50 -43 -75 -21 -38 -323 -571 -377
-665 -24 -42 -65 -117 -96 -173 -15 -26 -41 -72 -59 -102 -18 -30 -44 -75 -57
-100 -28 -50 -34 -61 -158 -280 -48 -85 -97 -171 -109 -190 -11 -19 -24 -42
-28 -50 -4 -8 -29 -52 -55 -98 -26 -46 -48 -88 -48 -93 0 -5 -4 -9 -10 -9 -5
0 -10 -4 -10 -10 0 -5 -33 -67 -73 -137 -41 -71 -87 -153 -104 -183 -34 -62
-203 -361 -330 -585 -192 -336 -212 -372 -232 -407 -11 -21 -29 -53 -40 -70
-10 -18 -55 -98 -100 -178 -45 -80 -86 -152 -91 -160 -6 -8 -13 -23 -16 -33
-4 -9 -9 -17 -13 -17 -3 0 -6 5102 -6 11339 l0 11338 6427 0 6427 0 -23 -41z
m2389 -1662 c50 -63 179 -229 289 -367 109 -139 215 -274 236 -302 36 -47 277
-353 303 -385 7 -8 83 -105 169 -215 238 -303 627 -798 641 -815 7 -8 113
-143 236 -300 122 -157 230 -294 239 -305 10 -11 33 -40 52 -65 19 -25 40 -52
47 -60 24 -29 150 -190 248 -315 94 -121 163 -209 330 -420 39 -49 129 -164
201 -255 71 -91 134 -172 141 -180 46 -56 224 -283 253 -322 28 -36 396 -505
447 -568 13 -16 89 -113 134 -171 106 -135 161 -206 172 -219 12 -14 89 -112
271 -345 39 -49 73 -92 76 -95 3 -3 35 -43 71 -90 57 -75 510 -651 542 -690 7
-8 77 -98 157 -200 125 -159 241 -307 283 -360 7 -8 111 -141 232 -295 120
-154 222 -282 225 -285 3 -3 33 -41 67 -85 57 -75 245 -314 298 -380 14 -16
25 -33 25 -36 0 -4 -19 -23 -42 -42 -24 -20 -56 -47 -73 -62 -41 -36 -89 -77
-390 -336 -143 -123 -265 -228 -271 -234 -6 -5 -33 -28 -59 -50 -27 -22 -53
-44 -59 -50 -6 -5 -45 -39 -86 -75 -41 -36 -80 -69 -86 -75 -6 -5 -22 -19 -35
-30 -29 -24 -221 -189 -264 -226 -63 -55 -141 -122 -165 -143 -14 -11 -91 -77
-170 -146 -80 -69 -156 -135 -170 -146 -14 -12 -82 -71 -151 -130 -121 -105
-147 -127 -253 -217 -27 -23 -59 -51 -70 -62 -12 -11 -46 -40 -76 -65 -30 -25
-61 -52 -70 -60 -13 -13 -78 -69 -150 -130 -90 -77 -124 -105 -134 -114 -6 -6
-56 -49 -111 -96 -55 -47 -107 -92 -115 -100 -9 -8 -41 -36 -71 -61 -46 -39
-135 -116 -239 -206 -14 -11 -131 -112 -260 -223 -129 -111 -247 -212 -261
-225 -14 -12 -107 -92 -205 -176 -98 -85 -181 -156 -184 -159 -3 -3 -50 -43
-105 -90 -55 -47 -105 -89 -111 -95 -6 -5 -37 -32 -69 -60 -32 -27 -79 -68
-105 -90 -25 -22 -73 -63 -105 -91 -33 -29 -116 -101 -186 -160 -69 -60 -151
-131 -184 -159 -32 -27 -77 -66 -99 -85 -23 -19 -54 -46 -70 -60 -16 -14 -37
-32 -46 -40 -9 -8 -45 -40 -81 -70 -35 -30 -69 -59 -75 -65 -6 -5 -32 -28 -59
-50 -26 -22 -53 -45 -59 -50 -6 -6 -76 -67 -156 -135 -80 -68 -150 -129 -156
-135 -81 -74 -588 -505 -593 -505 -3 0 -6 3110 -6 6910 0 3801 2 6910 5 6910
3 0 46 -52 95 -116z m-1767 -7389 l0 -6754 -107 56 c-58 31 -128 68 -156 83
-62 34 -623 332 -765 407 -58 31 -118 64 -135 73 -16 10 -70 39 -120 65 -49
26 -123 65 -162 86 -129 69 -216 115 -308 164 -91 49 -150 80 -285 152 -41 22
-145 78 -230 123 -85 45 -186 99 -225 120 -38 21 -110 59 -160 85 -49 26 -112
60 -140 75 -27 15 -90 49 -140 75 -49 26 -121 64 -160 85 -120 64 -204 109
-247 132 -13 6 -77 40 -143 76 -229 122 -260 139 -350 187 -49 26 -121 64
-160 85 -94 50 -203 108 -300 160 -84 44 -175 93 -297 159 -40 21 -206 110
-368 196 -162 86 -326 174 -365 195 -38 20 -110 59 -160 85 -49 26 -117 63
-150 80 -33 18 -100 54 -150 80 -49 26 -92 49 -94 51 -2 2 11 29 29 61 44 77
61 108 94 168 16 28 32 55 36 60 4 6 20 33 35 60 52 94 156 280 165 295 5 8
28 49 51 90 23 41 50 89 59 105 9 17 71 125 137 240 66 116 135 237 153 270
18 33 47 84 64 114 46 80 61 106 202 356 347 614 571 1009 620 1093 30 51 54
95 54 97 0 2 19 36 43 77 24 40 46 80 50 88 4 8 15 29 26 45 45 74 321 567
321 575 0 5 4 10 8 12 4 2 24 32 44 68 46 84 87 157 109 195 10 17 27 48 39
69 12 22 86 152 164 290 194 340 234 412 269 476 16 30 36 62 43 71 8 8 14 18
14 21 0 7 138 253 404 719 12 20 45 79 73 130 29 52 59 105 67 119 17 29 116
203 154 270 14 25 72 128 130 230 58 102 145 257 195 345 50 88 112 197 139
243 26 45 48 85 48 87 0 3 18 34 40 70 22 36 40 67 40 69 0 2 29 54 65 116 36
62 65 114 65 116 0 3 10 21 23 42 13 20 37 62 54 92 31 57 241 428 345 610 34
58 76 134 95 169 19 35 55 97 79 138 24 41 44 76 44 77 0 2 22 41 48 87 27 46
61 106 76 132 51 93 289 512 341 602 28 50 55 97 58 105 4 8 11 22 17 30 10
15 123 213 183 320 27 49 118 210 149 265 76 133 112 195 114 195 1 0 2 -3040
2 -6755z m19321 6614 c-23 -46 -54 -111 -69 -144 -15 -33 -56 -118 -90 -190
-34 -71 -79 -166 -100 -210 -21 -44 -64 -134 -95 -200 -31 -66 -97 -203 -145
-305 -48 -102 -116 -243 -150 -315 -34 -71 -79 -166 -100 -210 -93 -198 -122
-259 -185 -390 -37 -77 -80 -167 -95 -200 -15 -33 -54 -114 -85 -180 -71 -149
-144 -302 -200 -420 -60 -127 -134 -282 -195 -410 -29 -60 -73 -153 -97 -205
-64 -135 -132 -278 -193 -405 -29 -60 -69 -146 -90 -190 -21 -44 -63 -134 -95
-200 -32 -66 -74 -156 -95 -200 -21 -44 -66 -138 -100 -210 -34 -71 -75 -157
-90 -190 -15 -33 -64 -136 -109 -228 -45 -93 -81 -170 -81 -172 0 -2 -38 -81
-84 -177 -46 -95 -102 -211 -123 -258 -41 -87 -96 -202 -186 -390 -27 -58 -67
-141 -87 -185 -21 -44 -66 -138 -100 -210 -88 -185 -158 -331 -187 -393 -13
-29 -67 -141 -119 -249 -52 -108 -94 -197 -94 -198 0 -2 -43 -92 -95 -200 -52
-109 -95 -199 -95 -200 0 -3 -82 -176 -175 -370 -32 -66 -79 -165 -105 -220
-26 -55 -71 -149 -100 -210 -29 -60 -69 -146 -90 -190 -37 -80 -89 -187 -202
-425 -33 -69 -75 -156 -93 -195 -36 -77 -107 -228 -192 -405 -31 -63 -73 -151
-93 -195 -21 -44 -60 -127 -88 -185 -27 -58 -72 -152 -99 -210 -169 -355 -240
-504 -273 -575 -21 -44 -74 -156 -119 -248 -44 -93 -81 -170 -81 -172 0 -1
-45 -97 -100 -211 -55 -115 -110 -231 -123 -257 l-22 -48 -100 128 c-55 70
-121 155 -148 188 -53 68 -64 81 -137 176 -14 17 -39 48 -56 68 -16 20 -77 97
-134 171 -57 74 -107 137 -110 140 -3 3 -53 66 -110 140 -58 74 -111 142 -117
150 -7 8 -103 130 -213 270 -110 140 -260 331 -333 423 -72 93 -140 178 -149
190 -9 12 -57 72 -105 134 -48 61 -124 157 -168 214 -108 138 -319 406 -353
449 -16 19 -172 217 -346 440 -175 223 -331 421 -346 440 -15 19 -72 91 -126
160 -54 69 -126 161 -161 205 -35 43 -63 84 -62 90 0 5 41 45 92 88 51 42 106
89 123 105 18 15 42 36 55 47 72 61 455 390 459 395 3 3 21 18 40 34 19 16 64
55 100 86 68 60 310 268 464 399 49 42 101 87 116 101 15 14 49 43 75 65 26
22 55 47 65 55 9 8 44 38 76 66 32 29 163 140 289 249 127 109 255 219 285
245 62 53 222 191 260 224 64 54 246 212 256 221 6 5 32 28 58 49 26 21 60 51
75 65 16 14 40 35 52 45 13 11 60 51 104 89 44 38 91 79 105 91 31 27 376 323
410 352 96 83 376 325 531 458 101 87 200 172 220 190 20 17 58 50 85 72 27
23 60 52 74 64 31 27 83 72 285 245 88 76 174 149 190 164 17 15 111 96 210
181 99 85 194 167 210 181 17 15 100 86 185 159 85 73 180 154 210 180 30 27
93 81 140 121 47 41 90 78 96 84 7 5 36 31 65 56 30 25 124 106 210 180 86 74
180 154 209 179 29 25 61 52 69 60 9 9 48 43 86 75 39 33 72 62 75 65 3 3 32
28 65 55 33 28 62 53 65 56 3 3 88 77 190 164 102 87 187 161 190 164 3 3 32
28 65 56 33 27 76 64 95 81 19 18 123 107 230 199 107 92 211 181 231 198 20
18 60 53 90 78 70 60 688 592 843 726 66 57 121 101 123 100 2 -2 -15 -42 -38
-88z m1663 -10679 c0 -5649 -2 -10273 -4 -10275 -2 -2 -69 79 -148 181 -80
102 -155 198 -166 212 -12 15 -110 140 -218 277 -108 138 -208 264 -221 280
-264 335 -644 820 -669 851 -42 57 -688 876 -701 891 -5 6 -20 24 -31 40 -23
30 -390 498 -411 523 -23 28 -478 607 -503 640 -14 18 -54 70 -90 115 -36 45
-78 100 -95 121 -16 21 -73 92 -125 159 -53 66 -170 215 -260 330 -90 116
-170 217 -177 225 -7 8 -48 60 -91 115 -69 88 -262 333 -295 375 -7 8 -37 47
-67 85 -30 39 -86 111 -125 160 -39 50 -255 324 -480 610 -225 286 -457 581
-515 655 -58 74 -173 221 -255 325 -82 105 -168 213 -190 240 -22 28 -53 68
-70 89 -16 22 -65 83 -107 137 -43 54 -78 102 -78 107 0 4 11 30 24 58 31 61
139 289 176 369 15 33 60 128 100 210 40 83 87 182 105 220 18 39 56 120 85
180 29 61 74 155 100 210 26 55 73 154 105 220 62 130 125 263 185 390 62 132
124 263 188 395 32 69 73 154 90 190 16 36 67 141 111 234 45 92 81 169 81
171 0 1 39 83 86 181 47 99 101 211 119 249 18 39 58 124 90 190 31 66 78 163
102 215 94 197 146 307 183 385 21 44 59 125 86 180 26 55 49 102 49 105 1 3
27 57 57 120 109 227 171 356 208 435 37 80 81 171 180 380 117 246 164 343
195 410 18 39 59 124 90 190 32 66 74 156 95 200 21 44 66 139 100 210 34 72
77 162 95 200 18 39 67 141 109 228 42 87 76 160 76 161 0 2 38 83 85 180 47
98 101 210 119 249 19 40 62 130 96 201 34 71 76 161 95 200 18 39 59 125 90
191 31 66 74 156 95 200 21 44 66 139 100 210 34 72 79 166 100 210 21 44 68
143 105 220 37 77 80 167 95 200 15 33 51 110 80 170 127 267 164 344 195 410
18 39 58 124 90 190 32 66 74 156 95 200 61 128 133 280 200 420 34 72 78 164
97 205 20 41 69 144 109 228 41 84 74 154 74 156 0 2 35 77 79 167 104 219
164 344 218 459 71 149 126 265 186 390 61 129 142 299 192 405 18 39 66 140
107 225 41 86 83 174 93 198 10 23 21 40 23 37 2 -2 4 -4626 4 -10275z
m-11642 1820 c52 -67 103 -131 112 -143 10 -12 77 -98 151 -192 472 -601 929
-1182 940 -1195 6 -8 68 -87 137 -175 68 -88 129 -165 135 -171 5 -7 71 -90
145 -184 74 -95 182 -232 239 -304 56 -72 114 -144 126 -161 13 -16 187 -237
385 -490 199 -253 372 -473 383 -488 12 -16 27 -34 32 -40 6 -7 51 -64 100
-127 50 -63 95 -122 102 -130 7 -8 35 -44 63 -80 28 -36 57 -72 63 -80 7 -8
111 -141 232 -295 121 -154 227 -288 236 -298 14 -16 13 -23 -22 -95 -20 -42
-77 -162 -127 -267 -49 -104 -118 -248 -152 -320 -34 -71 -75 -157 -90 -190
-15 -33 -54 -114 -85 -180 -85 -178 -152 -320 -195 -410 -20 -44 -60 -127 -88
-185 -27 -58 -70 -148 -95 -200 -24 -52 -71 -149 -102 -215 -104 -217 -167
-349 -195 -410 -15 -33 -60 -127 -100 -210 -40 -82 -85 -177 -100 -210 -29
-62 -101 -213 -185 -390 -136 -285 -161 -336 -195 -410 -21 -44 -66 -138 -100
-210 -34 -71 -75 -157 -90 -190 -15 -33 -56 -118 -90 -190 -34 -71 -79 -166
-100 -210 -21 -44 -63 -134 -95 -200 -32 -66 -77 -160 -100 -210 -23 -49 -86
-182 -140 -295 -54 -113 -117 -245 -140 -295 -62 -131 -140 -295 -197 -415
-28 -58 -70 -145 -93 -195 -23 -49 -68 -144 -100 -210 -55 -115 -107 -225
-200 -420 -23 -49 -66 -139 -95 -200 -99 -208 -142 -300 -180 -380 -21 -44
-66 -138 -100 -210 -34 -71 -79 -166 -100 -210 -58 -124 -132 -280 -188 -395
-155 -323 -192 -402 -192 -406 0 -2 -31 -68 -69 -146 -121 -251 -199 -415
-205 -434 -6 -18 -101 -19 -3471 -19 -2609 0 -3467 3 -3473 12 -11 17 -7 7392
4 7401 5 5 38 33 74 63 36 29 67 56 70 59 3 3 37 32 75 65 39 33 72 62 75 65
7 8 548 474 609 525 50 42 304 260 356 306 50 44 277 239 395 339 36 30 69 60
75 66 5 6 120 105 255 220 135 115 247 211 250 214 5 5 37 33 220 190 30 26
192 166 360 310 168 144 327 281 354 304 26 22 61 52 76 66 15 14 101 88 191
165 90 77 166 142 169 145 3 3 37 32 75 65 39 33 72 62 75 65 3 3 21 18 40 34
19 16 64 54 100 86 36 31 166 144 290 250 266 228 336 288 367 317 13 11 42
35 63 53 21 18 50 42 63 53 25 23 63 57 267 232 189 162 232 199 244 210 9 8
110 95 316 271 14 12 48 41 76 65 27 24 79 69 114 99 35 30 68 60 74 65 6 6
38 33 71 60 33 28 67 57 76 65 8 8 29 26 45 39 62 52 149 127 169 146 12 11
46 41 76 66 148 126 362 311 373 322 8 6 37 32 67 57 29 25 186 160 349 299
162 140 303 262 313 270 34 29 62 53 114 98 91 79 84 77 118 39 17 -19 73 -89
125 -156z m-15858 -2924 c51 -27 109 -58 128 -69 19 -11 69 -38 110 -60 41
-22 107 -56 145 -77 39 -21 111 -59 160 -85 50 -26 122 -64 160 -85 208 -111
512 -274 600 -320 55 -29 123 -65 150 -80 28 -15 95 -51 150 -80 55 -30 135
-73 179 -97 43 -24 80 -43 82 -43 3 0 184 -96 474 -252 41 -23 122 -66 180
-96 58 -30 119 -62 135 -72 17 -10 75 -41 130 -70 55 -29 123 -65 150 -80 28
-15 104 -56 170 -90 66 -35 198 -106 293 -157 96 -51 175 -93 177 -93 2 0 30
-15 62 -33 32 -19 112 -62 178 -97 66 -35 147 -77 180 -95 33 -18 94 -50 135
-72 132 -70 233 -125 295 -158 33 -18 110 -58 170 -90 61 -32 124 -66 140 -75
17 -10 80 -43 140 -75 61 -32 137 -72 170 -90 63 -34 116 -62 365 -195 150
-80 212 -113 378 -201 42 -23 104 -56 137 -74 33 -18 101 -54 150 -80 157 -83
258 -137 339 -182 43 -23 82 -43 86 -43 4 0 10 -6 12 -12 3 -7 4 -1649 4
-3648 l-1 -3635 -6418 0 c-3531 0 -6421 4 -6424 8 -2 4 7 27 20 50 30 51 53
92 127 222 94 166 282 498 300 530 10 17 114 201 232 410 119 209 260 459 315
555 55 96 117 207 138 245 21 39 41 75 45 80 5 6 17 26 27 45 56 100 348 616
430 759 51 89 93 165 93 167 0 2 25 44 55 95 30 50 55 93 55 96 0 4 103 188
120 213 6 8 14 24 20 35 5 11 24 45 42 76 51 87 109 190 133 234 12 22 77 137
144 255 139 244 210 369 239 420 11 19 48 85 82 145 35 61 71 124 80 140 57
102 97 172 107 190 7 11 15 26 19 34 4 7 65 115 136 238 70 124 128 227 128
229 0 2 13 25 29 52 31 53 63 108 126 222 23 41 68 119 99 172 31 54 56 100
56 103 0 3 8 18 19 33 10 15 72 122 136 237 153 272 396 702 445 785 20 36 48
85 62 110 14 25 123 218 243 430 120 212 266 468 323 570 58 102 113 199 122
215 9 17 54 95 98 175 45 80 86 152 92 160 5 8 18 31 28 50 10 19 93 166 184
325 90 160 180 317 198 350 18 33 58 103 88 154 30 52 67 118 82 145 72 131
245 435 266 467 13 19 24 38 24 42 0 3 15 32 34 64 19 32 47 81 62 109 16 28
76 134 133 236 l105 184 47 -26 c26 -14 90 -47 141 -74z"/>
</g>
</svg>
