<svg id="hic-hollow" xmlns="http://www.w3.org/2000/svg" version="1.1" viewBox="0 0 300 300">
  <path class="hic ff-hic-svg" fill="currentColor" d="M283,0H17C7.6,0,0,7.6,0,17v266c0,9.4,7.6,17,17,17h266c9.4,0,17-7.6,17-17V17c0-9.4-7.6-17-17-17ZM286.6,266.5h-26.9v19.5h-37.3v-19.5h-53.7v19.5h-37.3v-19.5h-53.7v19.5h-37.3v-19.5H13.4v-25.4h273.1v25.4ZM131.3,131.3v-61.3h37.3v159.9h-37.3v-61.3h-53.7v61.3h-37.3V70h37.3v61.3h53.7ZM222.4,230V70h37.3v159.9h-37.3ZM286.6,58.9H13.4v-25.4h26.9V14h37.3v19.5h53.7V14h37.3v19.5h53.7V14h37.3v19.5h26.9v25.4Z"/>
</svg>
