<svg xmlns="http://www.w3.org/2000/svg" version="1.1" viewBox="0 0 400 300">
  <path class="logo-dual-theme-b-path" fill="currentColor" d="M5.8,300c-.3,0-.7,0-1,0-.3,0-.6-.1-.8-.2-.8-.3-1.6-.8-2.2-1.4,0,0,0,0,0,0,0,0,0,0,0,0-.3-.3-.5-.6-.7-.9,0,0,0,0,0,0,0,0,0,0,0,0-.6-.9-1-2-1-3.2V5.8C0,2.6,2.6,0,5.8,0h163.5c2,0,3.9,1.1,5,2.9s1,4,0,5.7l-82.1,144.9,79.8,42.6c1.9,1,3,3,3,5.1v93.2c0,3.2-2.6,5.8-5.8,5.8H5.8s0,0,0,0ZM15.6,288.5h147.8v-83.9l-77-41.1L15.6,288.5ZM11.5,11.5v260.9l67.7-119.5L159.4,11.5H11.5Z"/>
  <path class="logo-dual-theme-m-path" fill="currentColor" d="M394.3,300c-1.7,0-3.4-.8-4.5-2.2l-79.1-101.4-47.3,100.3c-.9,2-3,3.3-5.2,3.3h-89c-3.2,0-5.7-2.6-5.7-5.8V5.8c0-2.5,1.5-4.6,3.8-5.4,2.3-.8,4.9,0,6.4,1.9l87.2,111.7L390.6,1.4c1.7-1.5,4.1-1.8,6.1-.9,2,.9,3.3,3,3.3,5.2v288.5c0,2.5-1.5,4.6-3.8,5.4-.6.2-1.2.3-1.9.3ZM174.9,288.5h79.7l48.2-102.2-43.5-55.8-84.4,73.2v84.8ZM316.2,184.8l72.4,92.8V31.3l-72.4,153.5ZM174.9,22.4v166.1l77.3-67.1L174.9,22.4ZM267.9,123l40.3,51.7L377.5,27.9l-109.6,95.1Z"/>
</svg>
