<svg id="rockettrail-right" xmlns="http://www.w3.org/2000/svg" version="1.1" viewBox="0 0 500 1000">
  <path id="trail-right" d="M8.1,0c6.9,11,13.5,22.3,22.2,32.8,4.5,77.9,41.1,97.2,81.2,138,0,12.1.2,25.9,6.9,39.9,11.9,25,37.2,33.7,47.6,47.1,14.7,19,14.2,40.1,26.2,59.8,1.6,2.6,3.6,5,5.9,7.5,4.4,12.7,7.7,24,10.7,34.9-2.2,2.6-3.6,6.1-3.9,10.9-1.5,25.4,12.6,40.4,22.6,53.4h0c-1.1,5.5-1.8,10.7-1.4,15.5,2,26.5,17.4,41.8,26.7,61.2,7.3,15.4,7.9,40.1,32.9,58.6,3.4,2.5,6.5,3.7,9.4,4.1,12.3,17.7,23.9,31.1,34.9,44.2,8.5,17.7,24,28.9,30.4,48.6,5.1,15.5-3.2,39.8,8.7,64.8,7.7,16.3,21.1,25.6,32.4,33.9,26.9,114.3-9.6,148.8,85.9,228.4,3.1,5.6,6.4,10.9,9.7,16.3h3V0H8.1Z"/>
</svg>
