<svg id="rockettrail" xmlns="http://www.w3.org/2000/svg" version="1.1" viewBox="0 0 1600 900">
  <defs>
    <style>
      .st0 {
        stroke: currentColor;
        stroke-miterlimit: 10;
        stroke-width: 4px;
        fill: currentColor;
      }
    </style>
  </defs>
  <path id="left" class="st0" d="M21.9,885.3c-5,5-10.2,9.8-15.5,14.7H0V0h789c-11,9.9-21.6,20.1-35.5,29.5-7.2,70.1-65.8,87.5-130,124.2.2,10.9-.3,23.3-11,35.9-19,22.5-59.5,30.3-76.2,42.4-23.5,17.1-22.7,36.1-41.9,53.8-2.6,2.3-5.8,4.5-9.4,6.8-7,11.4-12.3,21.6-17.1,31.4,3.5,2.3,5.8,5.5,6.2,9.8,2.4,22.9-20.2,36.4-36.2,48.1h0c1.8,4.9,2.9,9.6,2.2,13.9-3.2,23.8-27.8,37.6-42.7,55.1-11.7,13.9-12.6,36.1-52.6,52.7-5.4,2.2-10.4,3.3-15,3.7-19.7,15.9-38.2,28-55.8,39.8-13.6,15.9-38.4,26-48.6,43.7-8.2,14,5.1,35.8-13.9,58.3-12.3,14.7-33.8,23-51.8,30.5-43,102.9,15.4,133.9-137.5,205.6h.2-.3,0Z"/>
  <path id="right" class="st0" d="M811.3,0c11,9.9,21.6,20.1,35.6,29.5,7.2,70.1,66,87.5,130.2,124.2-.2,10.9.3,23.3,11,35.9,19,22.5,59.6,30.3,76.4,42.4,23.6,17.1,22.8,36.1,42,53.8,2.6,2.3,5.8,4.5,9.4,6.8,7,11.4,12.3,21.6,17.1,31.4-3.5,2.3-5.8,5.5-6.2,9.8-2.4,22.9,20.2,36.4,36.3,48.1h0c-1.8,4.9-2.9,9.6-2.2,13.9,3.2,23.8,27.9,37.6,42.8,55.1,11.7,13.9,12.6,36.1,52.7,52.7,5.4,2.2,10.4,3.3,15,3.7,19.7,15.9,38.3,28,55.9,39.8,13.6,15.9,38.5,26,48.7,43.7,8.2,14-5.1,35.8,13.9,58.3,12.3,14.7,33.9,23,51.9,30.5,43.1,102.9-15.4,133.9,137.7,205.6,5,5,10.2,9.8,15.5,14.7h4.8V0h-789,.3,0Z"/>
</svg>
