<svg id="rocket-flame" xmlns="http://www.w3.org/2000/svg" version="1.1" viewBox="0 0 16 28">
  <path id="body" class="ff-rocket-flame-body" d="M5.2,17.4c-.6-1.1-1-2.3-1.3-3.5s-.4-2.5-.4-3.8c0-2.1.4-4,1.2-5.9C5.5,2.4,6.6,1,8,0c1.4,1,2.4,2.4,3.3,4.2.8,1.8,1.2,3.8,1.2,5.9s-.1,2.6-.4,3.8c-.3,1.2-.7,2.4-1.3,3.5h-5.6ZM8,10.4c.5,0,1-.2,1.4-.6s.6-.9.6-1.4-.2-1-.6-1.4c-.4-.4-.9-.6-1.4-.6s-1,.2-1.4.6-.6.9-.6,1.4.2,1,.6,1.4.9.6,1.4.6"/>
  <path id="fins" class="ff-rocket-flame-fins" d="M0,19.4v-5.9c0-.3,0-.6.2-.9s.4-.5.7-.7l1.1-.7c0,1.4.3,2.6.5,3.6s.6,2.1,1.2,3.3l-3.7,1.5v-.2ZM16,19.4l-3.7-1.5c.5-1.2.9-2.3,1.2-3.3s.4-2.2.6-3.6l1.1.7c.3.2.5.4.7.7s.2.6.2.9v6.1Z"/>
  <path id="flame" class="ff-rocket-flame-flame" d="M5,22.2c0-.8.3-1.5.9-2.1s1.3-.9,2.1-.9,1.5.3,2.1.9.9,1.3.9,2.1-.2,1.3-.7,2.2c-.5.9-1.2,2-2.3,3.4-1-1.4-1.8-2.5-2.3-3.4s-.7-1.6-.7-2.2"/>
</svg>
