<svg xmlns="http://www.w3.org/2000/svg" viewBox="0 0 24 24">
  <path id="about-svg-about" fill="currentColor" d="M17.755 14a2.25 2.25 0 0 1 2.248 2.25v.575c0 .894-.32 1.759-.9 2.438c-1.57 1.833-3.957 2.738-7.103 2.738s-5.532-.905-7.098-2.74a3.75 3.75 0 0 1-.898-2.434v-.578A2.25 2.25 0 0 1 6.253 14zm0 1.5H6.252a.75.75 0 0 0-.75.75v.577c0 .535.192 1.053.54 1.46c1.253 1.469 3.22 2.214 5.957 2.214c2.739 0 4.706-.745 5.963-2.213a2.25 2.25 0 0 0 .54-1.463v-.576a.75.75 0 0 0-.748-.749M12 2.005a5 5 0 1 1 0 10a5 5 0 0 1 0-10m0 1.5a3.5 3.5 0 1 0 0 7a3.5 3.5 0 0 0 0-7" />
  <path id="about-svg-passions" style="visibility:hidden" fill="currentColor" d="M12.003 21q-1.866 0-3.51-.708q-1.643-.709-2.859-1.924t-1.925-2.856T3 12.003t.709-3.51Q4.417 6.85 5.63 5.634t2.857-1.925T11.997 3t3.51.709q1.643.708 2.859 1.922t1.925 2.857t.709 3.509t-.708 3.51t-1.924 2.859t-2.856 1.925t-3.509.709M12 20q3.35 0 5.675-2.325T20 12t-2.325-5.675T12 4T6.325 6.325T4 12t2.325 5.675T12 20m0-1.538q.414 0 .726-.246q.313-.245.409-.639h-2.27q.097.394.409.64q.313.245.726.245m-2.692-2.27h5.384v-.884H9.308zm-.187-2.269h5.758q.828-.628 1.32-1.593q.493-.964.493-2.1q0-1.947-1.372-3.319T12 5.539T8.68 6.91t-1.372 3.32q0 1.135.492 2.1q.493.964 1.321 1.592m.338-.884q-.589-.571-.928-1.298t-.339-1.515q0-1.576 1.115-2.69T12 6.424t2.693 1.114q1.115 1.113 1.115 2.689q0 .788-.34 1.515t-.928 1.298z" />
  <path id="about-svg-projects" style="visibility:hidden" fill="currentColor" d="M3.75 3.5a.25.25 0 0 0-.25.25v2.062a.75.75 0 1 1-1.5 0V3.75C2 2.783 2.783 2 3.75 2h2.062a.75.75 0 1 1 0 1.5Zm13.688-.75a.75.75 0 0 1 .75-.75h2.062c.966 0 1.75.783 1.75 1.75v2.062a.75.75 0 1 1-1.5 0V3.75a.25.25 0 0 0-.25-.25h-2.062a.75.75 0 0 1-.75-.75M2.75 17.438a.75.75 0 0 1 .75.75v2.062c0 .138.112.25.25.25h2.062a.75.75 0 1 1 0 1.5H3.75A1.75 1.75 0 0 1 2 20.25v-2.062a.75.75 0 0 1 .75-.75m18.5 0a.75.75 0 0 1 .75.75v2.062A1.75 1.75 0 0 1 20.25 22h-2.062a.75.75 0 1 1 0-1.5h2.062a.25.25 0 0 0 .25-.25v-2.062a.75.75 0 0 1 .75-.75m-18.5-8.25a.75.75 0 0 1 .75.75v4.124a.75.75 0 1 1-1.5 0V9.938a.75.75 0 0 1 .75-.75M9.188 2.75a.75.75 0 0 1 .75-.75h4.124a.75.75 0 1 1 0 1.5H9.938a.75.75 0 0 1-.75-.75m0 18.5a.75.75 0 0 1 .75-.75h4.124a.75.75 0 1 1 0 1.5H9.938a.75.75 0 0 1-.75-.75M21.25 9.188a.75.75 0 0 1 .75.75v4.124a.75.75 0 1 1-1.5 0V9.938a.75.75 0 0 1 .75-.75M3.75 8.25a.75.75 0 0 1 .75-.75h2a.75.75 0 0 1 0 1.5h-2a.75.75 0 0 1-.75-.75m5.5 0A.75.75 0 0 1 10 7.5h2A.75.75 0 0 1 12 9h-2a.75.75 0 0 1-.75-.75m-1-4.5A.75.75 0 0 1 9 4.5v2a.75.75 0 0 1-1.5 0v-2a.75.75 0 0 1 .75-.75m0 5.5A.75.75 0 0 1 9 10v2a.75.75 0 0 1-1.5 0v-2a.75.75 0 0 1 .75-.75m0 4.75a.75.75 0 0 1 .75.75v4a.75.75 0 0 1-1.5 0v-4a.75.75 0 0 1 .75-.75M14 8.25a.75.75 0 0 1 .75-.75h4a.75.75 0 0 1 0 1.5h-4a.75.75 0 0 1-.75-.75" />
  <path id="about-svg-history" style="visibility:hidden" fill="currentColor" fill-rule="evenodd" d="M5.079 5.069c3.795-3.79 9.965-3.75 13.783.069c3.82 3.82 3.86 9.993.064 13.788s-9.968 3.756-13.788-.064a9.81 9.81 0 0 1-2.798-8.28a.75.75 0 1 1 1.487.203a8.31 8.31 0 0 0 2.371 7.017c3.245 3.244 8.468 3.263 11.668.064c3.199-3.2 3.18-8.423-.064-11.668c-3.243-3.242-8.463-3.263-11.663-.068l.748.003a.75.75 0 1 1-.007 1.5l-2.546-.012a.75.75 0 0 1-.746-.747L3.575 4.33a.75.75 0 1 1 1.5-.008zm6.92 2.18a.75.75 0 0 1 .75.75v3.69l2.281 2.28a.75.75 0 1 1-1.06 1.061l-2.72-2.72V8a.75.75 0 0 1 .75-.75" clip-rule="evenodd" />
</svg>
