<svg id="resume" xmlns="http://www.w3.org/2000/svg" version="1.1" viewBox="0 0 12 16">
  <path fill="currentColor" id="line_5" d="M3.5,12c-.3,0-.5.2-.5.5s.2.5.5.5h2c.3,0,.5-.2.5-.5s-.2-.5-.5-.5h-2Z"/>
  <path fill="currentColor" id="line_4" d="M3,10.5c0-.3.2-.5.5-.5h5c.3,0,.5.2.5.5s-.2.5-.5.5H3.5c-.3,0-.5-.2-.5-.5"/>
  <path fill="currentColor" id="line_3" d="M3,8.5c0-.3.2-.5.5-.5h5c.3,0,.5.2.5.5s-.2.5-.5.5H3.5c-.3,0-.5-.2-.5-.5"/>
  <path fill="currentColor" id="line_2" d="M3,6.7c0-.3.2-.5.5-.5h5c.3,0,.5.2.5.5s-.2.5-.5.5H3.5c-.3,0-.5-.2-.5-.5"/>
  <path fill="currentColor" id="line_1" d="M3,5c0-.3.2-.5.5-.5h5c.3,0,.5.2.5.5s-.2.5-.5.5H3.5c-.3,0-.5-.2-.5-.5"/>
  <path fill="currentColor" id="name_line" d="M3.5,2.2c-.3,0-.5.2-.5.5s.2.5.5.5h1.9c.3,0,.5-.2.5-.5s-.2-.5-.5-.5h-1.9ZM6.6,2.2c-.3,0-.5.2-.5.5s.2.5.5.5h1.9c.3,0,.5-.2.5-.5s-.2-.5-.5-.5h-1.9Z"/>
  <path fill="currentColor" id="outline" fill-rule="evenodd" d="M.3,1.6c-.3.6-.3,1.5-.3,3.2v6.4c0,1.7,0,2.5.3,3.2.3.6.7,1,1.3,1.3.6.3,1.5.3,3.2.3h2.4c1.7,0,2.5,0,3.2-.3.6-.3,1-.7,1.3-1.3.3-.6.3-1.5.3-3.2v-6.4c0-1.7,0-2.5-.3-3.2-.3-.6-.7-1-1.3-1.3C9.7,0,8.9,0,7.2,0h-2.4C3.1,0,2.3,0,1.6.3c-.6.3-1,.7-1.3,1.3M7.2,1h-2.4c-.9,0-1.4,0-1.9,0-.4,0-.7.1-.8.2-.4.2-.7.5-.9.9,0,.2-.1.4-.2.8,0,.5,0,1,0,1.9v6.4c0,.9,0,1.4,0,1.9,0,.4.1.7.2.8.2.4.5.7.9.9.2,0,.4.1.8.2.4,0,1,0,1.9,0h2.4c.9,0,1.4,0,1.9,0,.4,0,.7-.1.8-.2.4-.2.7-.5.9-.9,0-.2.1-.4.2-.8,0-.4,0-1,0-1.9v-6.4c0-.9,0-1.4,0-1.9,0-.4-.1-.7-.2-.8-.2-.4-.5-.7-.9-.9-.2,0-.4-.1-.8-.2-.4,0-1,0-1.9,0"/>
</svg>
