<?xml version="1.0" encoding="UTF-8"?>
<svg id="Layer_1" data-name="Layer 1" xmlns="http://www.w3.org/2000/svg" viewBox="0 0 1000 1000">
  <defs>
    <style>
      .cls-1 {
        stroke: #21d0b2;
      }

      .cls-1, .cls-2 {
        fill: none;
        stroke-linejoin: round;
        stroke-width: 14px;
      }

      .cls-2 {
        stroke: #495159;
      }

      .cls-3 {
        stroke-width: 0px;
      }
    </style>
  </defs>
  <g>
    <path class="cls-3" d="m104.63,875.9h-25.05v-56.76h25.05c6.75,0,11.84,4.99,11.84,11.94v6.46c0,6.95-5.28,9.79-5.28,9.79,0,0,5.28,2.54,5.28,8.81v7.83c0,6.95-5.09,11.94-11.84,11.94Zm6.46-45.6c0-3.13-2.45-6.36-5.77-6.36h-20.65v20.75h19.67c5.09,0,6.75-2.45,6.75-7.24v-7.14Zm0,26.81c0-4.6-1.27-7.54-6.26-7.54h-20.16v21.63h20.65c3.33,0,5.77-3.33,5.77-6.36v-7.73Z"/>
    <path class="cls-3" d="m131.74,875.9v-56.76h32.19v5.09h-27.01v20.75h20.94v5.19h-20.94v20.55h27.01v5.19h-32.19Z"/>
    <path class="cls-3" d="m211.88,875.9v-17.22l-27.3-30.82v48.05h-5.38v-56.76h5.09l27.59,31.41v-31.41h5.38v56.76h-5.38Z"/>
    <path class="cls-3" d="m258.65,824.13v39.83c0,6.95-4.79,11.94-11.55,11.94h-7.83c-6.75,0-11.65-4.99-11.65-11.94v-2.05h5.19v2.94c0,3.23,2.54,5.87,5.68,5.87h9.1c3.23,0,5.77-2.64,5.77-5.87v-40.71h-8.9v-4.99h22.31v4.99h-8.12Z"/>
    <path class="cls-3" d="m317.56,875.9h-5.28v-19.38h-27.89v19.38h-5.28v-35.13c0-3.82.59-5.97,3.03-8.42l12.82-13.21h6.75l12.82,13.21c2.45,2.45,3.03,4.6,3.03,8.42v35.13Zm-7.14-40.22l-11.25-11.84h-1.47l-11.45,11.84c-1.86,1.96-1.86,3.23-1.86,5.67v10.57h27.89v-10.57c0-2.45-.1-3.72-1.86-5.67Z"/>
    <path class="cls-3" d="m369.61,875.9v-47.75l-13.7,16.83h-4.01l-13.7-16.83v47.75h-5.38v-56.76h4.7l15.66,19.47h1.57l15.56-19.47h4.7v56.76h-5.38Z"/>
    <path class="cls-3" d="m390.26,875.9v-4.7h8.22v-47.36h-8.22v-4.7h21.82v4.7h-8.32v47.36h8.32v4.7h-21.82Z"/>
    <path class="cls-3" d="m460.03,875.9v-17.22l-27.3-30.82v48.05h-5.38v-56.76h5.09l27.59,31.41v-31.41h5.38v56.76h-5.38Z"/>
    <path class="cls-3" d="m551.72,875.9v-47.75l-13.7,16.83h-4.01l-13.7-16.83v47.75h-5.38v-56.76h4.7l15.66,19.47h1.57l15.56-19.47h4.7v56.76h-5.38Z"/>
    <path class="cls-3" d="m610.82,875.9h-5.28v-19.38h-27.89v19.38h-5.28v-35.13c0-3.82.59-5.97,3.03-8.42l12.82-13.21h6.75l12.82,13.21c2.45,2.45,3.03,4.6,3.03,8.42v35.13Zm-7.14-40.22l-11.25-11.84h-1.47l-11.45,11.84c-1.86,1.96-1.86,3.23-1.86,5.67v10.57h27.89v-10.57c0-2.45-.1-3.72-1.86-5.67Z"/>
    <path class="cls-3" d="m643.21,824.23v51.67h-5.87v-51.67h-17.12v-5.09h40.22v5.09h-17.22Z"/>
    <path class="cls-3" d="m692.82,824.23v51.67h-5.87v-51.67h-17.12v-5.09h40.22v5.09h-17.22Z"/>
    <path class="cls-3" d="m755.44,875.9v-25.74h-27.89v25.74h-5.19v-56.76h5.19v25.83h27.89v-25.83h5.19v56.76h-5.19Z"/>
    <path class="cls-3" d="m775.89,875.9v-56.76h32.19v5.09h-27.01v20.75h20.94v5.19h-20.94v20.55h27.01v5.19h-32.19Z"/>
    <path class="cls-3" d="m865.72,866.5l-5.77,9.39h-6.36l-6.75-11.55h-1.47l-6.75,11.55h-6.36l-5.77-9.39c-1.96-3.23-3.13-5.67-3.13-9.39v-37.97h5.48v37.97c0,2.54.49,4.11,1.76,6.26l4.01,7.14h1.86l5.28-8.51c1.17-1.76,1.76-3.13,1.76-5.19v-21.53h5.19v21.53c0,2.06.69,3.43,1.76,5.19l5.28,8.51h1.86l4.01-7.14c1.27-2.15,1.76-3.72,1.76-6.26v-37.97h5.48v37.97c0,3.72-1.17,6.17-3.13,9.39Z"/>
    <path class="cls-3" d="m909.75,876.09h-14.97c-6.75,0-11.64-4.99-11.64-11.94v-1.57h5.19v2.15c0,3.13,2.54,6.17,5.67,6.17h16.54c3.23,0,5.67-3.03,5.67-6.17v-8.02c0-3.23-2.45-6.17-5.67-6.26l-15.36-.49c-6.75-.2-11.64-4.99-11.64-11.94v-6.95c0-6.95,5.09-11.94,11.84-11.94h13.6c6.75,0,11.65,4.99,11.65,11.94v1.66h-5.19v-2.25c0-3.13-2.45-6.17-5.68-6.17h-15.27c-3.23,0-5.77,3.03-5.77,6.17v8.12c0,3.23,2.54,6.16,5.68,6.26l15.36.39c6.65.2,11.64,4.99,11.64,11.94v6.95c0,6.95-4.89,11.94-11.64,11.94Z"/>
  </g>
  <g>
    <path class="cls-2" d="m66.73,745.07V104.53h362.88l-188.68,333.04-174.2,307.5Zm0,0h362.88v-206.83l-188.68-100.66"/>
    <polyline class="cls-1" points="429.61 538.24 933.27 104.53 933.27 745.07 429.61 104.53 429.61 745.07 628.86 745.07 933.27 104.53"/>
  </g>
</svg>